<svg version="1.1" id="Layer_1" xmlns="http://www.w3.org/2000/svg" xmlns:xlink="http://www.w3.org/1999/xlink" x="0px" y="0px"
	 width="100%" viewBox="0 0 128 128" enable-background="new 0 0 128 128" xml:space="preserve">
<path fill="#0072FF" opacity="1.000000" stroke="none" 
	d="
M49.000031,121.000000 
	C42.336060,120.999992 36.143864,120.623795 30.014353,121.083458 
	C19.412678,121.878494 8.531673,109.711510 8.789002,100.223549 
	C9.430132,76.584572 9.420255,52.905262 8.785706,29.265924 
	C8.544338,20.274059 20.424601,8.595044 29.002010,8.802481 
	C52.644550,9.374248 76.309967,8.993538 99.966339,9.002917 
	C111.601204,9.007529 120.987564,18.269278 120.995209,29.773952 
	C121.010818,53.263714 120.709930,76.758736 121.134628,100.240829 
	C121.318817,110.425247 109.939880,121.660278 99.968620,121.208435 
	C83.177078,120.447548 66.326035,120.999977 49.000031,121.000000 
M98.024490,29.473520 
	C95.061523,30.117624 92.098564,30.761726 89.000214,31.435261 
	C89.000214,36.714649 89.003052,41.700470 88.999542,46.686287 
	C88.994453,53.909691 88.356049,54.400684 81.831589,50.920937 
	C76.490219,48.072170 71.090660,48.491592 65.616028,49.860764 
	C54.550030,52.628300 45.099758,65.319214 45.775303,79.012947 
	C46.647243,96.687790 67.132553,111.648590 83.679398,101.967140 
	C85.019577,101.183014 88.351791,101.023788 88.555443,101.505501 
	C90.668823,106.504410 94.923233,104.860451 98.475754,104.950203 
	C104.458382,105.101364 104.993752,104.448555 104.996399,98.365326 
	C105.005608,77.210060 104.841454,56.052738 105.115707,34.901028 
	C105.181137,29.854855 103.489586,28.230961 98.024490,29.473520 
z"/>
<path fill="#0072FF" opacity="1.000000" stroke="none" 
	d="
M89.049591,80.034309 
	C87.486862,87.198296 81.830513,91.367783 74.685127,90.998779 
	C67.379974,90.621529 61.534290,84.890778 61.003216,77.585892 
	C60.496433,70.615097 64.862503,64.931923 71.251083,62.890293 
	C77.191795,60.991783 82.182999,62.871246 85.868515,66.738380 
	C88.956039,69.978058 91.122749,74.567230 89.049591,80.034309 
z"/>
</svg>